<svg id="l_d_6910" xmlns="http://www.w3.org/2000/svg" xmlns:xlink="http://www.w3.org/1999/xlink" viewBox="0 0 105 105" width="105" height="105" preserveAspectRatio="xMidYMid meet" style="width: 100%; height: 100%; transform: translate3d(0px, 0px, 0px); content-visibility: visible;"><defs id="l_d_6911"><clipPath id="__lottie_element_2926"><rect id="l_d_6914" width="105" height="105" x="0" y="0"/></clipPath><clipPath id="__lottie_element_2928"><path id="l_d_6918" d="M0,0 L750,0 L750,1624 L0,1624z"/></clipPath></defs><g id="l_d_6912" clip-path="url(#__lottie_element_2926)"><g id="l_d_6915" clip-path="url(#__lottie_element_2928)" transform="matrix(0.5833333134651184,0,0,0.5833333134651184,-165.6666717529297,-498.1666564941406)" opacity="1" style="display: block;"><g id="l_d_6933" transform="matrix(1,0,0,1,374,976)" opacity="0.2" style="display: block;"><g id="l_d_6937" opacity="1" transform="matrix(2,0,0,2,0,0)"><path id="l_d_6938" fill="rgb(172,172,172)" fill-opacity="1" d=" M0,-12 C16.854000091552734,-12 30,-6.742000102996826 30,0 C30,6.742000102996826 16.854000091552734,12 0,12 C-16.854000091552734,12 -30,6.742000102996826 -30,0 C-30,-6.742000102996826 -16.854000091552734,-12 0,-12z"/></g></g><g id="l_d_6921" transform="matrix(1,0,0,1,374,932.25)" opacity="1" style="display: block;"><g id="l_d_6925" opacity="1" transform="matrix(2,0,0,2,0,0)"><path id="l_d_6926" fill="rgb(255,56,92)" fill-opacity="1" d=" M-16.5,-5.625 C-16.5,-14.625 -9.11299991607666,-22.125 0,-22.125 C9.11299991607666,-22.125 16.5,-14.73799991607666 16.5,-5.625 C16.5,3.375 10.99899959564209,12.62600040435791 0,22.125 C-10.99899959564209,12.62600040435791 -16.5,3.375 -16.5,-5.625z"/></g></g><g id="l_d_6927" transform="matrix(1,0,0,1,374,923.5)" opacity="1" style="display: block;"><g id="l_d_6931" opacity="1" transform="matrix(2,0,0,2,0,0)"><path id="l_d_6932" fill="rgb(255,255,255)" fill-opacity="1" d=" M4.645999908447266,-1.6460000276565552 C4.739999771118164,-1.5520000457763672 4.867000102996826,-1.5 5,-1.5 C5.132999897003174,-1.5 5.260000228881836,-1.5520000457763672 5.354000091552734,-1.6460000276565552 C5.447999954223633,-1.7400000095367432 5.5,-1.8669999837875366 5.5,-2 C5.5,-2.132999897003174 5.447999954223633,-2.259999990463257 5.354000091552734,-2.3540000915527344 C5.260000228881836,-2.447999954223633 5.132999897003174,-2.5 5,-2.5 C4.867000102996826,-2.5 4.739999771118164,-2.447999954223633 4.645999908447266,-2.3540000915527344 C4.552000045776367,-2.259999990463257 4.5,-2.132999897003174 4.5,-2 C4.5,-1.8669999837875366 4.552000045776367,-1.7400000095367432 4.645999908447266,-1.6460000276565552z M4.645999908447266,0.3540000021457672 C4.739999771118164,0.4480000138282776 4.867000102996826,0.5 5,0.5 C5.132999897003174,0.5 5.260000228881836,0.4480000138282776 5.354000091552734,0.3540000021457672 C5.447999954223633,0.25999999046325684 5.5,0.13300000131130219 5.5,0 C5.5,-0.13300000131130219 5.447999954223633,-0.25999999046325684 5.354000091552734,-0.3540000021457672 C5.260000228881836,-0.4480000138282776 5.132999897003174,-0.5 5,-0.5 C4.867000102996826,-0.5 4.739999771118164,-0.4480000138282776 4.645999908447266,-0.3540000021457672 C4.552000045776367,-0.25999999046325684 4.5,-0.13300000131130219 4.5,0 C4.5,0.13300000131130219 4.552000045776367,0.25999999046325684 4.645999908447266,0.3540000021457672z M2,6 C2,6 3,6 3,6 C3,6 3,-3.5 3,-3.5 C3,-3.5 2,-3.5 2,-3.5 C2,-3.5 2,6 2,6z M-1.3539999723434448,-3.6459999084472656 C-1.2599999904632568,-3.552000045776367 -1.1330000162124634,-3.5 -1,-3.5 C-0.8669999837875366,-3.5 -0.7400000095367432,-3.552000045776367 -0.6460000276565552,-3.6459999084472656 C-0.5519999861717224,-3.740000009536743 -0.5,-3.867000102996826 -0.5,-4 C-0.5,-4.132999897003174 -0.5519999861717224,-4.260000228881836 -0.6460000276565552,-4.354000091552734 C-0.7400000095367432,-4.447999954223633 -0.8669999837875366,-4.5 -1,-4.5 C-1.1330000162124634,-4.5 -1.2599999904632568,-4.447999954223633 -1.3539999723434448,-4.354000091552734 C-1.4479999542236328,-4.260000228881836 -1.5,-4.132999897003174 -1.5,-4 C-1.5,-3.867000102996826 -1.4479999542236328,-3.740000009536743 -1.3539999723434448,-3.6459999084472656z M-1.3539999723434448,-1.6460000276565552 C-1.2599999904632568,-1.5520000457763672 -1.1330000162124634,-1.5 -1,-1.5 C-0.8669999837875366,-1.5 -0.7400000095367432,-1.5520000457763672 -0.6460000276565552,-1.6460000276565552 C-0.5519999861717224,-1.7400000095367432 -0.5,-1.8669999837875366 -0.5,-2 C-0.5,-2.132999897003174 -0.5519999861717224,-2.259999990463257 -0.6460000276565552,-2.3540000915527344 C-0.7400000095367432,-2.447999954223633 -0.8669999837875366,-2.5 -1,-2.5 C-1.1330000162124634,-2.5 -1.2599999904632568,-2.447999954223633 -1.3539999723434448,-2.3540000915527344 C-1.4479999542236328,-2.259999990463257 -1.5,-2.132999897003174 -1.5,-2 C-1.5,-1.8669999837875366 -1.4479999542236328,-1.7400000095367432 -1.3539999723434448,-1.6460000276565552z M-1.3539999723434448,0.3540000021457672 C-1.2599999904632568,0.4480000138282776 -1.1330000162124634,0.5 -1,0.5 C-0.8669999837875366,0.5 -0.7400000095367432,0.4480000138282776 -0.6460000276565552,0.3540000021457672 C-0.5519999861717224,0.25999999046325684 -0.5,0.13300000131130219 -0.5,0 C-0.5,-0.13300000131130219 -0.5519999861717224,-0.25999999046325684 -0.6460000276565552,-0.3540000021457672 C-0.7400000095367432,-0.4480000138282776 -0.8669999837875366,-0.5 -1,-0.5 C-1.1330000162124634,-0.5 -1.2599999904632568,-0.4480000138282776 -1.3539999723434448,-0.3540000021457672 C-1.4479999542236328,-0.25999999046325684 -1.5,-0.13300000131130219 -1.5,0 C-1.5,0.13300000131130219 -1.4479999542236328,0.25999999046325684 -1.3539999723434448,0.3540000021457672z M-4.5,6 C-4.5,6 -0.5,6 -0.5,6 C-0.5,6 -0.5,3.5 -0.5,3.5 C-0.5,2.9489998817443848 -0.9490000009536743,2.5 -1.5,2.5 C-1.5,2.5 -3.5,2.5 -3.5,2.5 C-4.051000118255615,2.5 -4.5,2.9489998817443848 -4.5,3.5 C-4.5,3.5 -4.5,6 -4.5,6z M-3.6459999084472656,-0.3540000021457672 C-3.740000009536743,-0.4480000138282776 -3.867000102996826,-0.5 -4,-0.5 C-4.132999897003174,-0.5 -4.260000228881836,-0.4480000138282776 -4.354000091552734,-0.3540000021457672 C-4.447999954223633,-0.25999999046325684 -4.5,-0.13300000131130219 -4.5,0 C-4.5,0.13300000131130219 -4.447999954223633,0.25999999046325684 -4.354000091552734,0.3540000021457672 C-4.260000228881836,0.4480000138282776 -4.132999897003174,0.5 -4,0.5 C-3.867000102996826,0.5 -3.740000009536743,0.4480000138282776 -3.6459999084472656,0.3540000021457672 C-3.552000045776367,0.25999999046325684 -3.5,0.13300000131130219 -3.5,0 C-3.5,-0.13300000131130219 -3.552000045776367,-0.25999999046325684 -3.6459999084472656,-0.3540000021457672z M-3.6459999084472656,-2.3540000915527344 C-3.740000009536743,-2.447999954223633 -3.867000102996826,-2.5 -4,-2.5 C-4.132999897003174,-2.5 -4.260000228881836,-2.447999954223633 -4.354000091552734,-2.3540000915527344 C-4.447999954223633,-2.259999990463257 -4.5,-2.132999897003174 -4.5,-2 C-4.5,-1.8669999837875366 -4.447999954223633,-1.7400000095367432 -4.354000091552734,-1.6460000276565552 C-4.260000228881836,-1.5520000457763672 -4.132999897003174,-1.5 -4,-1.5 C-3.867000102996826,-1.5 -3.740000009536743,-1.5520000457763672 -3.6459999084472656,-1.6460000276565552 C-3.552000045776367,-1.7400000095367432 -3.5,-1.8669999837875366 -3.5,-2 C-3.5,-2.132999897003174 -3.552000045776367,-2.259999990463257 -3.6459999084472656,-2.3540000915527344z M-3.6459999084472656,-4.354000091552734 C-3.740000009536743,-4.447999954223633 -3.867000102996826,-4.5 -4,-4.5 C-4,-4.5 -4,-4.5 -4,-4.5 C-4.132999897003174,-4.5 -4.260000228881836,-4.447999954223633 -4.354000091552734,-4.354000091552734 C-4.447999954223633,-4.260000228881836 -4.5,-4.132999897003174 -4.5,-4 C-4.5,-3.867000102996826 -4.447999954223633,-3.740000009536743 -4.354000091552734,-3.6459999084472656 C-4.260000228881836,-3.552000045776367 -4.132999897003174,-3.5 -4,-3.5 C-3.867000102996826,-3.5 -3.740000009536743,-3.552000045776367 -3.6459999084472656,-3.6459999084472656 C-3.552000045776367,-3.740000009536743 -3.5,-3.867000102996826 -3.5,-4 C-3.5,-4.132999897003174 -3.552000045776367,-4.260000228881836 -3.6459999084472656,-4.354000091552734z M2,-4.5 C2,-4.5 6,-4.5 6,-4.5 C6.551000118255615,-4.5 7,-4.051000118255615 7,-3.5 C7,-3.5 7,6 7,6 C7,6.551000118255615 6.551000118255615,7 6,7 C6,7 -6,7 -6,7 C-6.551000118255615,7 -7,6.551000118255615 -7,6 C-7,6 -7,-6 -7,-6 C-7,-6.551000118255615 -6.551000118255615,-7 -6,-7 C-6,-7 1,-7 1,-7 C1.5509999990463257,-7 2,-6.551000118255615 2,-6 C2,-6 2,-4.5 2,-4.5z"/></g></g></g></g></svg>