<svg id="l_d_978" xmlns="http://www.w3.org/2000/svg" xmlns:xlink="http://www.w3.org/1999/xlink" viewBox="0 0 45 45" width="45" height="45" preserveAspectRatio="xMidYMid meet" style="width: 100%; height: 100%; transform: translate3d(0px, 0px, 0px); content-visibility: visible;"><defs id="l_d_979"><clipPath id="__lottie_element_397"><rect id="l_d_982" width="45" height="45" x="0" y="0"/></clipPath><g id="__lottie_element_417"><g id="l_d_1019" transform="matrix(1,0,0,1,-23,-19.25)" opacity="1" style="display: block;"><g id="l_d_1024" opacity="1" transform="matrix(1,0,0,1,40,44)"><path id="l_d_1025" fill="rgb(34,34,34)" fill-opacity="1" d=" M11.930999755859375,0 C11.930999755859375,0 -11.930999755859375,0 -11.930999755859375,0 C-11.930999755859375,0 -14.982999801635742,-21.448999404907227 -14.982999801635742,-21.448999404907227 C-14.982999801635742,-21.448999404907227 15.00100040435791,-21.322999954223633 15.00100040435791,-21.322999954223633 C15.00100040435791,-21.322999954223633 11.930999755859375,0 11.930999755859375,0z"/></g></g></g><mask id="__lottie_element_417_1" mask-type="alpha"><use id="l_d_1034" xmlns:ns1="http://www.w3.org/1999/xlink" ns1:href="#__lottie_element_417"/></mask><g id="__lottie_element_423"><g id="l_d_1035" transform="matrix(1,0,0,1,-23,-19.25)" opacity="1" style="display: block;"><g id="l_d_1040" opacity="1" transform="matrix(1,0,0,1,40,44)"><path id="l_d_1041" fill="rgb(34,34,34)" fill-opacity="1" d=" M11.930999755859375,0 C11.930999755859375,0 -11.930999755859375,0 -11.930999755859375,0 C-11.930999755859375,0 -14.982999801635742,-21.448999404907227 -14.982999801635742,-21.448999404907227 C-14.982999801635742,-21.448999404907227 15.00100040435791,-21.322999954223633 15.00100040435791,-21.322999954223633 C15.00100040435791,-21.322999954223633 11.930999755859375,0 11.930999755859375,0z"/></g></g></g><mask id="__lottie_element_423_1" mask-type="alpha"><use id="l_d_1050" xmlns:ns2="http://www.w3.org/1999/xlink" ns2:href="#__lottie_element_423"/></mask><g id="__lottie_element_429"><g id="l_d_1051" transform="matrix(1,0,0,1,-23,-19.25)" opacity="1" style="display: block;"><g id="l_d_1056" opacity="1" transform="matrix(1,0,0,1,40,44)"><path id="l_d_1057" fill="rgb(34,34,34)" fill-opacity="1" d=" M-14.991999626159668,10.925999641418457 C-14.991999626159668,10.925999641418457 -11.930999755859375,0 -11.930999755859375,0 C-11.930999755859375,0 11.930999755859375,0 11.930999755859375,0 C11.930999755859375,0 14.991999626159668,11.052000045776367 14.991999626159668,11.052000045776367"/></g></g></g><filter id="__lottie_element_435" filterUnits="objectBoundingBox" x="0%" y="0%" width="100%" height="100%"><feComponentTransfer id="l_d_1068" in="SourceGraphic"><feFuncA id="l_d_1069" type="table" tableValues="1.0 0.0"/></feComponentTransfer></filter><mask id="__lottie_element_429_2" mask-type="alpha"><g id="l_d_1066" filter="url(#__lottie_element_435)"><rect id="l_d_1070" width="45" height="45" x="0" y="0" fill="#ffffff" opacity="0"/><use id="l_d_1071" xmlns:ns3="http://www.w3.org/1999/xlink" ns3:href="#__lottie_element_429"/></g></mask><g id="__lottie_element_436"><g id="l_d_1072" transform="matrix(1,0,0,1,-23,-19.25)" opacity="1" style="display: block;"><g id="l_d_1077" opacity="1" transform="matrix(1,0,0,1,40,44)"><path id="l_d_1078" fill="rgb(34,34,34)" fill-opacity="1" d=" M-14.991999626159668,10.925999641418457 C-14.991999626159668,10.925999641418457 -11.930999755859375,0 -11.930999755859375,0 C-11.930999755859375,0 11.930999755859375,0 11.930999755859375,0 C11.930999755859375,0 14.991999626159668,11.052000045776367 14.991999626159668,11.052000045776367"/></g></g></g><filter id="__lottie_element_442" filterUnits="objectBoundingBox" x="0%" y="0%" width="100%" height="100%"><feComponentTransfer id="l_d_1089" in="SourceGraphic"><feFuncA id="l_d_1090" type="table" tableValues="1.0 0.0"/></feComponentTransfer></filter><mask id="__lottie_element_436_2" mask-type="alpha"><g id="l_d_1087" filter="url(#__lottie_element_442)"><rect id="l_d_1091" width="45" height="45" x="0" y="0" fill="#ffffff" opacity="0"/><use id="l_d_1092" xmlns:ns4="http://www.w3.org/1999/xlink" ns4:href="#__lottie_element_436"/></g></mask></defs><g id="l_d_980" clip-path="url(#__lottie_element_397)"><g id="l_d_1093" transform="matrix(1,0,0,1,-23,-19.25)" opacity="1" style="display: block;"><g id="l_d_1097" opacity="1" transform="matrix(1,0,0,1,40,49)"><path id="l_d_1098" stroke-linecap="butt" stroke-linejoin="round" fill-opacity="0" stroke="rgb(34,34,34)" stroke-opacity="1" stroke-width="2" d=" M-12,-5 C-12,-5 12,-5 12,-5 C12,-5 12,5 12,5 C12,5 -12,5 -12,5 C-12,5 -12,-5 -12,-5z"/></g><g id="l_d_1099" opacity="1" transform="matrix(1,0,0,1,40,44)"><path id="l_d_1100" stroke-linecap="butt" stroke-linejoin="round" fill-opacity="0" stroke="rgb(34,34,34)" stroke-opacity="1" stroke-width="2" d=" M-15,0 C-15,0 15,0 15,0"/></g></g><g id="l_d_1080" mask="url(#__lottie_element_436_2)" style="display: block;"><g id="l_d_1079" transform="matrix(1,0,0,1,-23,-19.25)" opacity="1"><g id="l_d_1083" opacity="1" transform="matrix(1,0,0,1,0,0)"><g id="l_d_1084" opacity="1" transform="matrix(1,0,0,1,40,41.479000091552734)"><path id="l_d_1085" stroke-linecap="butt" stroke-linejoin="miter" fill-opacity="0" stroke-miterlimit="4" stroke="rgb(34,34,34)" stroke-opacity="1" stroke-width="2" d=" M0,3.244999885559082 C1.2369999885559082,3.244999885559082 2.25,2.1760001182556152 2.25,1.0809999704360962 C2.25,-0.10899999737739563 1.5,-1.5509999990463257 0,-3.244999885559082 C-1.5,-1.5509999990463257 -2.25,-0.10899999737739563 -2.25,1.0809999704360962 C-2.25,2.1760001182556152 -1.2369999885559082,3.244999885559082 0,3.244999885559082 C0,3.244999885559082 0,3.244999885559082 0,3.244999885559082z"/></g></g></g></g><g id="l_d_1059" mask="url(#__lottie_element_429_2)" style="display: block;"><g id="l_d_1058" transform="matrix(1,0,0,1,-23,-19.25)" opacity="1"><g id="l_d_1062" opacity="1" transform="matrix(1,0,0,1,0,0)"><g id="l_d_1063" opacity="1" transform="matrix(1,0,0,1,40,36.91899871826172)"><path id="l_d_1064" stroke-linecap="round" stroke-linejoin="miter" fill-opacity="0" stroke-miterlimit="4" stroke="rgb(34,34,34)" stroke-opacity="1" stroke-width="2" d=" M0,-8.11400032043457 C3.318000078201294,-6.011000156402588 6,-1.3519999980926514 6,2.0280001163482666 C6,6.085000038146973 3.0380001068115234,8.11400032043457 0,8.11400032043457 C-2.990000009536743,8.11400032043457 -6,6.5920000076293945 -6,2.0280001163482666 C-6,0.33799999952316284 -5.166999816894531,-1.690000057220459 -3.5,-4.057000160217285 C-3.5,-4.057000160217285 -2,-3.0429999828338623 -2,-3.0429999828338623 C-2,-3.0429999828338623 -1.5,-7.544000148773193 0,-8.11400032043457z"/></g></g></g></g><g id="l_d_1043" mask="url(#__lottie_element_423_1)" style="display: block;"><g id="l_d_1042" transform="matrix(0,0,0,0,17,25.68499755859375)" opacity="1"><g id="l_d_1046" opacity="1" transform="matrix(1,0,0,1,0,0)"><g id="l_d_1047" opacity="1" transform="matrix(1,0,0,1,40,41.479000091552734)"><path id="l_d_1048" stroke-linecap="butt" stroke-linejoin="miter" fill-opacity="0" stroke-miterlimit="4" stroke="rgb(34,34,34)" stroke-opacity="1" stroke-width="2" d=" M0,3.244999885559082 C1.2369999885559082,3.244999885559082 2.25,2.1760001182556152 2.25,1.0809999704360962 C2.25,-0.10899999737739563 1.5,-1.5509999990463257 0,-3.244999885559082 C-1.5,-1.5509999990463257 -2.25,-0.10899999737739563 -2.25,1.0809999704360962 C-2.25,2.1760001182556152 -1.2369999885559082,3.244999885559082 0,3.244999885559082 C0,3.244999885559082 0,3.244999885559082 0,3.244999885559082z"/></g></g></g></g><g id="l_d_1027" mask="url(#__lottie_element_417_1)" style="display: block;"><g id="l_d_1026" transform="matrix(0,0,0,0,16.625,26.027999877929688)" opacity="1"><g id="l_d_1030" opacity="1" transform="matrix(1,0,0,1,0,0)"><g id="l_d_1031" opacity="1" transform="matrix(1,0,0,1,40,36.91899871826172)"><path id="l_d_1032" stroke-linecap="round" stroke-linejoin="miter" fill-opacity="0" stroke-miterlimit="4" stroke="rgb(34,34,34)" stroke-opacity="1" stroke-width="2" d=" M0,-8.11400032043457 C4,-4.732999801635742 6,-1.3519999980926514 6,2.0280001163482666 C6,6.085000038146973 3.0380001068115234,8.11400032043457 0,8.11400032043457 C-2.990000009536743,8.11400032043457 -6,6.5920000076293945 -6,2.0280001163482666 C-6,0.33799999952316284 -5.166999816894531,-1.690000057220459 -3.5,-4.057000160217285 C-3.5,-4.057000160217285 -2,-3.0429999828338623 -2,-3.0429999828338623 C-2,-3.0429999828338623 0,-8.11400032043457 0,-8.11400032043457z"/></g></g></g></g><g id="l_d_1013" style="display: none;"><g id="l_d_1017"><path id="l_d_1018"/></g></g><g id="l_d_1007" style="display: none;"><g id="l_d_1011"><path id="l_d_1012"/></g></g><g id="l_d_1001" style="display: none;"><g id="l_d_1005"><path id="l_d_1006"/></g></g><g id="l_d_995" style="display: none;"><g id="l_d_999"><path id="l_d_1000"/></g></g><g id="l_d_989" style="display: none;"><g id="l_d_993"><path id="l_d_994"/></g></g><g id="l_d_983" style="display: none;"><g id="l_d_987"><path id="l_d_988"/></g></g></g></svg>