<svg id="l_d_713" xmlns="http://www.w3.org/2000/svg" xmlns:xlink="http://www.w3.org/1999/xlink" viewBox="0 0 45 45" width="45" height="45" preserveAspectRatio="xMidYMid meet" style="width: 100%; height: 100%; transform: translate3d(0px, 0px, 0px); content-visibility: visible;"><defs id="l_d_714"><clipPath id="__lottie_element_280"><rect id="l_d_717" width="45" height="45" x="0" y="0"/></clipPath><g id="__lottie_element_283"><g id="l_d_718" style="display: none;" transform="matrix(0.999999463558197,0,0,0.999999463558197,-22.624980926513672,-17.499980926513672)" opacity="1"><g id="l_d_723" opacity="1" transform="matrix(1,0,0,1,40,40)"><path id="l_d_724" fill="rgb(255,0,0)" fill-opacity="1" d=" M-10.00023078918457,-11.99874496459961 C-10.00023078918457,-11.99874496459961 10.00023078918457,-11.99874496459961 10.00023078918457,-11.99874496459961 C12.209230422973633,-11.99874496459961 14.00023078918457,-10.20783805847168 14.00023078918457,-7.998953819274902 C14.00023078918457,-7.998953819274902 14.000167846679688,-16.12531852722168 14.000167846679688,-16.12531852722168 C14.000167846679688,-13.916434288024902 12.209168434143066,-12.125527381896973 10.000167846679688,-12.125527381896973 C10.000167846679688,-12.125527381896973 -10.000260353088379,-12.125527381896973 -10.000260353088379,-12.125527381896973 C-12.209259986877441,-12.125527381896973 -14.000260353088379,-13.916434288024902 -14.000260353088379,-16.12531852722168 C-14.000260353088379,-16.12531852722168 -14.00023078918457,-7.998953819274902 -14.00023078918457,-7.998953819274902 C-14.00023078918457,-10.20783805847168 -12.209230422973633,-11.99874496459961 -10.00023078918457,-11.99874496459961z"/></g></g></g><mask id="__lottie_element_283_1" mask-type="alpha"><use id="l_d_737" xmlns:ns1="http://www.w3.org/1999/xlink" ns1:href="#__lottie_element_283"/></mask><g id="__lottie_element_298"><g id="l_d_756" style="display: none;" transform="matrix(0.999999463558197,0,0,0.999999463558197,-22.624980926513672,-17.499980926513672)" opacity="1"><g id="l_d_761" opacity="1" transform="matrix(1,0,0,1,40,40)"><path id="l_d_762" fill="rgb(255,0,0)" fill-opacity="1" d=" M-10.00023078918457,-11.99874496459961 C-10.00023078918457,-11.99874496459961 10.00023078918457,-11.99874496459961 10.00023078918457,-11.99874496459961 C12.209230422973633,-11.99874496459961 14.00023078918457,-10.20783805847168 14.00023078918457,-7.998953819274902 C14.00023078918457,-7.998953819274902 14.000167846679688,-16.12531852722168 14.000167846679688,-16.12531852722168 C14.000167846679688,-13.916434288024902 12.209168434143066,-12.125527381896973 10.000167846679688,-12.125527381896973 C10.000167846679688,-12.125527381896973 -10.000260353088379,-12.125527381896973 -10.000260353088379,-12.125527381896973 C-12.209259986877441,-12.125527381896973 -14.000260353088379,-13.916434288024902 -14.000260353088379,-16.12531852722168 C-14.000260353088379,-16.12531852722168 -14.00023078918457,-7.998953819274902 -14.00023078918457,-7.998953819274902 C-14.00023078918457,-10.20783805847168 -12.209230422973633,-11.99874496459961 -10.00023078918457,-11.99874496459961z"/></g></g></g><mask id="__lottie_element_298_1" mask-type="alpha"><use id="l_d_770" xmlns:ns2="http://www.w3.org/1999/xlink" ns2:href="#__lottie_element_298"/></mask></defs><g id="l_d_715" clip-path="url(#__lottie_element_280)"><g id="l_d_764" mask="url(#__lottie_element_298_1)" style="display: none;"><g id="l_d_763" transform="matrix(0.999999463558197,0,0,0.999999463558197,-22.624980926513672,-17.499980926513672)" opacity="1"><g id="l_d_767" opacity="1" transform="matrix(1,0,0,1,40,40)"><path id="l_d_768" stroke-linecap="butt" stroke-linejoin="miter" fill-opacity="0" stroke-miterlimit="4" stroke="rgb(34,34,34)" stroke-opacity="1" stroke-width="2" d=" M-10,-12 C-10,-12 10,-12 10,-12 C12.208999633789062,-12 14,-10.208999633789062 14,-8 C14,-8 14,8 14,8 C14,10.208999633789062 12.208999633789062,12 10,12 C10,12 -10,12 -10,12 C-12.208999633789062,12 -14,10.208999633789062 -14,8 C-14,8 -14,-8 -14,-8 C-14,-10.208999633789062 -12.208999633789062,-12 -10,-12z"/></g></g></g><g id="l_d_750" transform="matrix(0.999999463558197,0,0,0.999999463558197,-22.624980926513672,-17.499980926513672)" opacity="1" style="display: block;"><g id="l_d_754" opacity="1" transform="matrix(1,0,0,1,40,40)"><path id="l_d_755" stroke-linecap="butt" stroke-linejoin="miter" fill-opacity="0" stroke-miterlimit="4" stroke="rgb(34,34,34)" stroke-opacity="1" stroke-width="2" d=" M-10,-12 C-10,-12 10,-12 10,-12 C12.208999633789062,-12 14,-10.208999633789062 14,-8 C14,-8 14,8 14,8 C14,10.208999633789062 12.208999633789062,12 10,12 C10,12 -10,12 -10,12 C-12.208999633789062,12 -14,10.208999633789062 -14,8 C-14,8 -14,-8 -14,-8 C-14,-10.208999633789062 -12.208999633789062,-12 -10,-12z"/></g></g><g id="l_d_744" transform="matrix(0.950995922088623,0,0,0.950995922088623,-20.664833068847656,-15.539833068847656)" opacity="1" style="display: none;"><g id="l_d_748" opacity="1" transform="matrix(1,0,0,1,40,40)"><path id="l_d_749" stroke-linecap="butt" stroke-linejoin="miter" fill-opacity="0" stroke-miterlimit="4" stroke="rgb(34,34,34)" stroke-opacity="1" stroke-width="2" d=" M-2,12.825531005859375 C-2,12.825531005859375 -2,12.495295524597168 -2,12.495295524597168 C-2,12.495295524597168 2,12.495295524597168 2,12.495295524597168 C2,12.495295524597168 2,12.825531005859375 2,12.825531005859375 C2,12.825531005859375 6,12.825531005859375 6,12.825531005859375 C6,12.825531005859375 6.154251575469971,13.155767440795898 6.154251575469971,13.155767440795898 C6.154251575469971,13.155767440795898 2.2466912269592285,13.155767440795898 2.2466912269592285,13.155767440795898 C2.2466912269592285,13.155767440795898 2.4013848304748535,13.485445022583008 2.4013848304748535,13.485445022583008 C2.4013848304748535,13.485445022583008 -2.4013848304748535,13.485445022583008 -2.4013848304748535,13.485445022583008 C-2.4013848304748535,13.485445022583008 -2.2466912269592285,13.155767440795898 -2.2466912269592285,13.155767440795898 C-2.2466912269592285,13.155767440795898 -6.154251575469971,13.155767440795898 -6.154251575469971,13.155767440795898 C-6.154251575469971,13.155767440795898 -6,12.825531005859375 -6,12.825531005859375 C-6,12.825531005859375 -2,12.825531005859375 -2,12.825531005859375z"/></g></g><g id="l_d_738" transform="matrix(0.999999463558197,0,0,0.999999463558197,-22.624980926513672,-17.499980926513672)" opacity="1" style="display: block;"><g id="l_d_742" opacity="1" transform="matrix(1,0,0,1,40,40)"><path id="l_d_743" stroke-linecap="butt" stroke-linejoin="miter" fill-opacity="0" stroke-miterlimit="4" stroke="rgb(34,34,34)" stroke-opacity="1" stroke-width="2" d=" M-2,2 C-2.062000036239624,2.875 -2,6 -2,6 C-2,6 2,6 2,6 C2,6 2,2 2,2 C2,2 6,2 6,2 C6,2 6,-2 6,-2 C6,-2 2,-2 2,-2 C2,-2 2,-6 2,-6 C2,-6 -2,-6 -2,-6 C-2,-6 -2,-2 -2,-2 C-2,-2 -6,-2 -6,-2 C-6,-2 -6,2 -6,2 C-6,2 -3,1.937999963760376 -2,2z"/></g></g><g id="l_d_726" mask="url(#__lottie_element_283_1)" style="display: none;"><g id="l_d_725" transform="matrix(0.999999463558197,0,0,0.999999463558197,-62.624961853027344,-57.499961853027344)" opacity="1"><g id="l_d_729" opacity="1" transform="matrix(1,0,0,1,0,0)"><g id="l_d_730" opacity="1" transform="matrix(1,0,0,1,80,80)"><path id="l_d_731" stroke-linecap="butt" stroke-linejoin="round" fill-opacity="0" stroke="rgb(34,34,34)" stroke-opacity="1" stroke-width="2" d=" M-3,-4 C-3,-4 3,-4 3,-4 C3,-4 3,4 3,4 C3,4 -3,4 -3,4 C-3,4 -3,-4 -3,-4z"/></g><g id="l_d_732" opacity="1" transform="matrix(1,0,0,1,80,80)"><path id="l_d_733" stroke-linecap="butt" stroke-linejoin="round" fill-opacity="0" stroke="rgb(34,34,34)" stroke-opacity="1" stroke-width="2" d=" M-11,-4 C-11,-4 11,-4 11,-4 C11,-4 11,4 11,4 C11,4 -11,4 -11,4 C-11,4 -11,-4 -11,-4z"/></g><g id="l_d_734" opacity="1" transform="matrix(1,0,0,1,80,80)"><path id="l_d_735" fill="rgb(34,34,34)" fill-opacity="1" d=" M-7,-1 C-6.447999954223633,-1 -6,-0.5519999861717224 -6,0 C-6,0.5519999861717224 -6.447999954223633,1 -7,1 C-7.552000045776367,1 -8,0.5519999861717224 -8,0 C-8,-0.5519999861717224 -7.552000045776367,-1 -7,-1z M7,-1 C7.552000045776367,-1 8,-0.5519999861717224 8,0 C8,0.5519999861717224 7.552000045776367,1 7,1 C6.447999954223633,1 6,0.5519999861717224 6,0 C6,-0.5519999861717224 6.447999954223633,-1 7,-1z"/></g></g></g></g></g></svg>