<svg id="l_d_1275" xmlns="http://www.w3.org/2000/svg" xmlns:xlink="http://www.w3.org/1999/xlink" viewBox="0 0 45 45" width="45" height="45" preserveAspectRatio="xMidYMid meet" style="width: 100%; height: 100%; transform: translate3d(0px, 0px, 0px); content-visibility: visible;"><defs id="l_d_1276"><clipPath id="__lottie_element_523"><rect id="l_d_1279" width="45" height="45" x="0" y="0"/></clipPath><clipPath id="__lottie_element_565"><path id="l_d_1374" d="M0,0 L80,0 L80,80 L0,80z"/></clipPath><g id="__lottie_element_568"><g id="l_d_1377" style="display: none;"><g id="l_d_1382"><path id="l_d_1383"/></g></g></g><mask id="__lottie_element_568_1" mask-type="alpha"><use id="l_d_1391" xmlns:ns1="http://www.w3.org/1999/xlink" ns1:href="#__lottie_element_568"/></mask><clipPath id="__lottie_element_575"><path id="l_d_1394" fill="#ffffff" clip-rule="nonzero" d=" M41.37099838256836,34.875 C41.37099838256836,34.875 35,34.875 35,34.875 C35,34.875 35,57.104000091552734 35,57.104000091552734 C35,57.104000091552734 41.37099838256836,57.104000091552734 41.37099838256836,57.104000091552734 C41.37099838256836,57.104000091552734 41.37099838256836,34.875 41.37099838256836,34.875" fill-opacity="1"/></clipPath><clipPath id="__lottie_element_578"><path id="l_d_1403" d="M0,0 L80,0 L80,80 L0,80z"/></clipPath><g id="__lottie_element_581"><g id="l_d_1406" style="display: none;"><g id="l_d_1411"><path id="l_d_1412"/></g></g></g><mask id="__lottie_element_581_1" mask-type="alpha"><use id="l_d_1420" xmlns:ns2="http://www.w3.org/1999/xlink" ns2:href="#__lottie_element_581"/></mask><clipPath id="__lottie_element_588"><path id="l_d_1423" fill="#ffffff" clip-rule="nonzero" d=" M41.37099838256836,34.875 C41.37099838256836,34.875 35,34.875 35,34.875 C35,34.875 35,57.104000091552734 35,57.104000091552734 C35,57.104000091552734 41.37099838256836,57.104000091552734 41.37099838256836,57.104000091552734 C41.37099838256836,57.104000091552734 41.37099838256836,34.875 41.37099838256836,34.875" fill-opacity="1"/></clipPath><clipPath id="__lottie_element_591"><path id="l_d_1432" d="M0,0 L80,0 L80,80 L0,80z"/></clipPath><g id="__lottie_element_594"><g id="l_d_1435" style="display: none;"><g id="l_d_1440"><path id="l_d_1441"/></g></g></g><mask id="__lottie_element_594_1" mask-type="alpha"><use id="l_d_1449" xmlns:ns3="http://www.w3.org/1999/xlink" ns3:href="#__lottie_element_594"/></mask><clipPath id="__lottie_element_601"><path id="l_d_1452" fill="#ffffff" clip-rule="nonzero" d=" M41.37099838256836,34.875 C41.37099838256836,34.875 35,34.875 35,34.875 C35,34.875 35,57.104000091552734 35,57.104000091552734 C35,57.104000091552734 41.37099838256836,57.104000091552734 41.37099838256836,57.104000091552734 C41.37099838256836,57.104000091552734 41.37099838256836,34.875 41.37099838256836,34.875" fill-opacity="1"/></clipPath></defs><g id="l_d_1277" clip-path="url(#__lottie_element_523)"><g id="l_d_1458" transform="matrix(1,0,0,1,-26,-17.25)" opacity="1" style="display: block;"><g id="l_d_1462" opacity="1" transform="matrix(1,0,0,1,36.5,40.5)"><path id="l_d_1463" stroke-linecap="butt" stroke-linejoin="miter" fill-opacity="0" stroke-miterlimit="4" stroke="rgb(34,34,34)" stroke-opacity="1" stroke-width="2" d=" M7.5,-10.5 C7.5,-10.5 7.5,-12.5 7.5,-12.5 C7.5,-13.604999542236328 6.605000019073486,-14.5 5.5,-14.5 C5.5,-14.5 -5.5,-14.5 -5.5,-14.5 C-6.605000019073486,-14.5 -7.5,-13.604999542236328 -7.5,-12.5 C-7.5,-12.5 -7.5,14.5 -7.5,14.5 C-7.5,14.5 -7.5,14.5 -7.5,14.5"/></g><g id="l_d_1464" opacity="1" transform="matrix(1,0,0,1,44,32)"><path id="l_d_1465" stroke-linecap="butt" stroke-linejoin="round" fill-opacity="0" stroke="rgb(34,34,34)" stroke-opacity="1" stroke-width="2" d=" M6,-2 C6,-2 -6,-2 -6,-2 C-6,-2 -6,2 -6,2 C-6,2 6,2 6,2 C6,2 6,-2 6,-2z"/></g><g id="l_d_1466" opacity="1" transform="matrix(1,0,0,1,44,34)"><path id="l_d_1467" stroke-linecap="butt" stroke-linejoin="round" fill-opacity="0" stroke="rgb(34,34,34)" stroke-opacity="1" stroke-width="2" d=" M-9,0 C-9,0 9,0 9,0"/></g></g><g id="l_d_1429" clip-path="url(#__lottie_element_591)" transform="matrix(1,0,0,1,-26,-17.25)" opacity="1" style="display: block;"><g id="l_d_1450" clip-path="url(#__lottie_element_601)" transform="matrix(1,0,0,1,0,0)" opacity="1" style="display: block;"><g id="l_d_1455" opacity="1" transform="matrix(1,0,0,1,0,0)"><g id="l_d_1456" opacity="1" transform="matrix(1,0,0,1,39,54)"><path id="l_d_1457" fill="rgb(34,34,34)" fill-opacity="1" d=" M5,-17 C4.447999954223633,-17 4,-16.552000045776367 4,-16 C4,-15.447999954223633 4.447999954223633,-15 5,-15 C5.552000045776367,-15 6,-15.447999954223633 6,-16 C6,-16.552000045776367 5.552000045776367,-17 5,-17z M0,-17 C-0.5519999861717224,-17 -1,-16.552000045776367 -1,-16 C-1,-15.447999954223633 -0.5519999861717224,-15 0,-15 C0.5519999861717224,-15 1,-15.447999954223633 1,-16 C1,-16.552000045776367 0.5519999861717224,-17 0,-17z M10,-17 C9.447999954223633,-17 9,-16.552000045776367 9,-16 C9,-15.447999954223633 9.447999954223633,-15 10,-15 C10.552000045776367,-15 11,-15.447999954223633 11,-16 C11,-16.552000045776367 10.552000045776367,-17 10,-17z M5,-13 C4.447999954223633,-13 4,-12.552000045776367 4,-12 C4,-11.447999954223633 4.447999954223633,-11 5,-11 C5.552000045776367,-11 6,-11.447999954223633 6,-12 C6,-12.552000045776367 5.552000045776367,-13 5,-13z M10,-13 C9.447999954223633,-13 9,-12.552000045776367 9,-12 C9,-11.447999954223633 9.447999954223633,-11 10,-11 C10.552000045776367,-11 11,-11.447999954223633 11,-12 C11,-12.552000045776367 10.552000045776367,-13 10,-13z M0,-13 C-0.5519999861717224,-13 -1,-12.552000045776367 -1,-12 C-1,-11.447999954223633 -0.5519999861717224,-11 0,-11 C0.5519999861717224,-11 1,-11.447999954223633 1,-12 C1,-12.552000045776367 0.5519999861717224,-13 0,-13z M5,-9 C4.447999954223633,-9 4,-8.552000045776367 4,-8 C4,-7.447999954223633 4.447999954223633,-7 5,-7 C5.552000045776367,-7 6,-7.447999954223633 6,-8 C6,-8.552000045776367 5.552000045776367,-9 5,-9z M10,-9 C9.447999954223633,-9 9,-8.552000045776367 9,-8 C9,-7.447999954223633 9.447999954223633,-7 10,-7 C10.552000045776367,-7 11,-7.447999954223633 11,-8 C11,-8.552000045776367 10.552000045776367,-9 10,-9z M0,-9 C-0.5519999861717224,-9 -1,-8.552000045776367 -1,-8 C-1,-7.447999954223633 -0.5519999861717224,-7 0,-7 C0.5519999861717224,-7 1,-7.447999954223633 1,-8 C1,-8.552000045776367 0.5519999861717224,-9 0,-9z M5,-5 C4.447999954223633,-5 4,-4.552000045776367 4,-4 C4,-3.447999954223633 4.447999954223633,-3 5,-3 C5.552000045776367,-3 6,-3.447999954223633 6,-4 C6,-4.552000045776367 5.552000045776367,-5 5,-5z M10,-5 C9.447999954223633,-5 9,-4.552000045776367 9,-4 C9,-3.447999954223633 9.447999954223633,-3 10,-3 C10.552000045776367,-3 11,-3.447999954223633 11,-4 C11,-4.552000045776367 10.552000045776367,-5 10,-5z M0,-5 C-0.5519999861717224,-5 -1,-4.552000045776367 -1,-4 C-1,-3.447999954223633 -0.5519999861717224,-3 0,-3 C0.5519999861717224,-3 1,-3.447999954223633 1,-4 C1,-4.552000045776367 0.5519999861717224,-5 0,-5z M5,-1 C4.447999954223633,-1 4,-0.5519999861717224 4,0 C4,0.5519999861717224 4.447999954223633,1 5,1 C5.552000045776367,1 6,0.5519999861717224 6,0 C6,-0.5519999861717224 5.552000045776367,-1 5,-1z M10,-1 C9.447999954223633,-1 9,-0.5519999861717224 9,0 C9,0.5519999861717224 9.447999954223633,1 10,1 C10.552000045776367,1 11,0.5519999861717224 11,0 C11,-0.5519999861717224 10.552000045776367,-1 10,-1z M0,-1 C-0.5519999861717224,-1 -1,-0.5519999861717224 -1,0 C-1,0.5519999861717224 -0.5519999861717224,1 0,1 C0.5519999861717224,1 1,0.5519999861717224 1,0 C1,-0.5519999861717224 0.5519999861717224,-1 0,-1z"/></g></g></g><g id="l_d_1443" mask="url(#__lottie_element_594_1)" style="display: block;"><g id="l_d_1442" transform="matrix(1,0,0,1,40,30)" opacity="1"><g id="l_d_1446" opacity="1" transform="matrix(1,0,0,1,0,0)"><path id="l_d_1447" stroke-linecap="round" stroke-linejoin="miter" fill-opacity="0" stroke-miterlimit="4" stroke-dasharray=" 0.1 4" stroke-dashoffset="6" stroke="rgb(34,34,34)" stroke-opacity="1" stroke-width="2" d=" M-1.00600004196167,-29.00200080871582 C-1.00600004196167,-29.00200080871582 -1.0119999647140503,30.87299919128418 -1.0119999647140503,30.87299919128418"/></g></g></g></g><g id="l_d_1400" clip-path="url(#__lottie_element_578)" transform="matrix(1,0,0,1,-21,-17.25)" opacity="1" style="display: block;"><g id="l_d_1421" clip-path="url(#__lottie_element_588)" transform="matrix(1,0,0,1,0,0)" opacity="1" style="display: block;"><g id="l_d_1426" opacity="1" transform="matrix(1,0,0,1,0,0)"><g id="l_d_1427" opacity="1" transform="matrix(1,0,0,1,39,54)"><path id="l_d_1428" fill="rgb(34,34,34)" fill-opacity="1" d=" M5,-17 C4.447999954223633,-17 4,-16.552000045776367 4,-16 C4,-15.447999954223633 4.447999954223633,-15 5,-15 C5.552000045776367,-15 6,-15.447999954223633 6,-16 C6,-16.552000045776367 5.552000045776367,-17 5,-17z M0,-17 C-0.5519999861717224,-17 -1,-16.552000045776367 -1,-16 C-1,-15.447999954223633 -0.5519999861717224,-15 0,-15 C0.5519999861717224,-15 1,-15.447999954223633 1,-16 C1,-16.552000045776367 0.5519999861717224,-17 0,-17z M10,-17 C9.447999954223633,-17 9,-16.552000045776367 9,-16 C9,-15.447999954223633 9.447999954223633,-15 10,-15 C10.552000045776367,-15 11,-15.447999954223633 11,-16 C11,-16.552000045776367 10.552000045776367,-17 10,-17z M5,-13 C4.447999954223633,-13 4,-12.552000045776367 4,-12 C4,-11.447999954223633 4.447999954223633,-11 5,-11 C5.552000045776367,-11 6,-11.447999954223633 6,-12 C6,-12.552000045776367 5.552000045776367,-13 5,-13z M10,-13 C9.447999954223633,-13 9,-12.552000045776367 9,-12 C9,-11.447999954223633 9.447999954223633,-11 10,-11 C10.552000045776367,-11 11,-11.447999954223633 11,-12 C11,-12.552000045776367 10.552000045776367,-13 10,-13z M0,-13 C-0.5519999861717224,-13 -1,-12.552000045776367 -1,-12 C-1,-11.447999954223633 -0.5519999861717224,-11 0,-11 C0.5519999861717224,-11 1,-11.447999954223633 1,-12 C1,-12.552000045776367 0.5519999861717224,-13 0,-13z M5,-9 C4.447999954223633,-9 4,-8.552000045776367 4,-8 C4,-7.447999954223633 4.447999954223633,-7 5,-7 C5.552000045776367,-7 6,-7.447999954223633 6,-8 C6,-8.552000045776367 5.552000045776367,-9 5,-9z M10,-9 C9.447999954223633,-9 9,-8.552000045776367 9,-8 C9,-7.447999954223633 9.447999954223633,-7 10,-7 C10.552000045776367,-7 11,-7.447999954223633 11,-8 C11,-8.552000045776367 10.552000045776367,-9 10,-9z M0,-9 C-0.5519999861717224,-9 -1,-8.552000045776367 -1,-8 C-1,-7.447999954223633 -0.5519999861717224,-7 0,-7 C0.5519999861717224,-7 1,-7.447999954223633 1,-8 C1,-8.552000045776367 0.5519999861717224,-9 0,-9z M5,-5 C4.447999954223633,-5 4,-4.552000045776367 4,-4 C4,-3.447999954223633 4.447999954223633,-3 5,-3 C5.552000045776367,-3 6,-3.447999954223633 6,-4 C6,-4.552000045776367 5.552000045776367,-5 5,-5z M10,-5 C9.447999954223633,-5 9,-4.552000045776367 9,-4 C9,-3.447999954223633 9.447999954223633,-3 10,-3 C10.552000045776367,-3 11,-3.447999954223633 11,-4 C11,-4.552000045776367 10.552000045776367,-5 10,-5z M0,-5 C-0.5519999861717224,-5 -1,-4.552000045776367 -1,-4 C-1,-3.447999954223633 -0.5519999861717224,-3 0,-3 C0.5519999861717224,-3 1,-3.447999954223633 1,-4 C1,-4.552000045776367 0.5519999861717224,-5 0,-5z M5,-1 C4.447999954223633,-1 4,-0.5519999861717224 4,0 C4,0.5519999861717224 4.447999954223633,1 5,1 C5.552000045776367,1 6,0.5519999861717224 6,0 C6,-0.5519999861717224 5.552000045776367,-1 5,-1z M10,-1 C9.447999954223633,-1 9,-0.5519999861717224 9,0 C9,0.5519999861717224 9.447999954223633,1 10,1 C10.552000045776367,1 11,0.5519999861717224 11,0 C11,-0.5519999861717224 10.552000045776367,-1 10,-1z M0,-1 C-0.5519999861717224,-1 -1,-0.5519999861717224 -1,0 C-1,0.5519999861717224 -0.5519999861717224,1 0,1 C0.5519999861717224,1 1,0.5519999861717224 1,0 C1,-0.5519999861717224 0.5519999861717224,-1 0,-1z"/></g></g></g><g id="l_d_1414" mask="url(#__lottie_element_581_1)" style="display: block;"><g id="l_d_1413" transform="matrix(1,0,0,1,40,30)" opacity="1"><g id="l_d_1417" opacity="1" transform="matrix(1,0,0,1,0,0)"><path id="l_d_1418" stroke-linecap="round" stroke-linejoin="miter" fill-opacity="0" stroke-miterlimit="4" stroke-dasharray=" 0.1 4" stroke-dashoffset="6" stroke="rgb(34,34,34)" stroke-opacity="1" stroke-width="2" d=" M-1.00600004196167,-29.00200080871582 C-1.00600004196167,-29.00200080871582 -1.0119999647140503,30.87299919128418 -1.0119999647140503,30.87299919128418"/></g></g></g></g><g id="l_d_1371" clip-path="url(#__lottie_element_565)" transform="matrix(1,0,0,1,-16.08300018310547,-17.25)" opacity="1" style="display: block;"><g id="l_d_1392" clip-path="url(#__lottie_element_575)" transform="matrix(1,0,0,1,0,0)" opacity="1" style="display: block;"><g id="l_d_1397" opacity="1" transform="matrix(1,0,0,1,0,0)"><g id="l_d_1398" opacity="1" transform="matrix(1,0,0,1,39,54)"><path id="l_d_1399" fill="rgb(34,34,34)" fill-opacity="1" d=" M5,-17 C4.447999954223633,-17 4,-16.552000045776367 4,-16 C4,-15.447999954223633 4.447999954223633,-15 5,-15 C5.552000045776367,-15 6,-15.447999954223633 6,-16 C6,-16.552000045776367 5.552000045776367,-17 5,-17z M0,-17 C-0.5519999861717224,-17 -1,-16.552000045776367 -1,-16 C-1,-15.447999954223633 -0.5519999861717224,-15 0,-15 C0.5519999861717224,-15 1,-15.447999954223633 1,-16 C1,-16.552000045776367 0.5519999861717224,-17 0,-17z M10,-17 C9.447999954223633,-17 9,-16.552000045776367 9,-16 C9,-15.447999954223633 9.447999954223633,-15 10,-15 C10.552000045776367,-15 11,-15.447999954223633 11,-16 C11,-16.552000045776367 10.552000045776367,-17 10,-17z M5,-13 C4.447999954223633,-13 4,-12.552000045776367 4,-12 C4,-11.447999954223633 4.447999954223633,-11 5,-11 C5.552000045776367,-11 6,-11.447999954223633 6,-12 C6,-12.552000045776367 5.552000045776367,-13 5,-13z M10,-13 C9.447999954223633,-13 9,-12.552000045776367 9,-12 C9,-11.447999954223633 9.447999954223633,-11 10,-11 C10.552000045776367,-11 11,-11.447999954223633 11,-12 C11,-12.552000045776367 10.552000045776367,-13 10,-13z M0,-13 C-0.5519999861717224,-13 -1,-12.552000045776367 -1,-12 C-1,-11.447999954223633 -0.5519999861717224,-11 0,-11 C0.5519999861717224,-11 1,-11.447999954223633 1,-12 C1,-12.552000045776367 0.5519999861717224,-13 0,-13z M5,-9 C4.447999954223633,-9 4,-8.552000045776367 4,-8 C4,-7.447999954223633 4.447999954223633,-7 5,-7 C5.552000045776367,-7 6,-7.447999954223633 6,-8 C6,-8.552000045776367 5.552000045776367,-9 5,-9z M10,-9 C9.447999954223633,-9 9,-8.552000045776367 9,-8 C9,-7.447999954223633 9.447999954223633,-7 10,-7 C10.552000045776367,-7 11,-7.447999954223633 11,-8 C11,-8.552000045776367 10.552000045776367,-9 10,-9z M0,-9 C-0.5519999861717224,-9 -1,-8.552000045776367 -1,-8 C-1,-7.447999954223633 -0.5519999861717224,-7 0,-7 C0.5519999861717224,-7 1,-7.447999954223633 1,-8 C1,-8.552000045776367 0.5519999861717224,-9 0,-9z M5,-5 C4.447999954223633,-5 4,-4.552000045776367 4,-4 C4,-3.447999954223633 4.447999954223633,-3 5,-3 C5.552000045776367,-3 6,-3.447999954223633 6,-4 C6,-4.552000045776367 5.552000045776367,-5 5,-5z M10,-5 C9.447999954223633,-5 9,-4.552000045776367 9,-4 C9,-3.447999954223633 9.447999954223633,-3 10,-3 C10.552000045776367,-3 11,-3.447999954223633 11,-4 C11,-4.552000045776367 10.552000045776367,-5 10,-5z M0,-5 C-0.5519999861717224,-5 -1,-4.552000045776367 -1,-4 C-1,-3.447999954223633 -0.5519999861717224,-3 0,-3 C0.5519999861717224,-3 1,-3.447999954223633 1,-4 C1,-4.552000045776367 0.5519999861717224,-5 0,-5z M5,-1 C4.447999954223633,-1 4,-0.5519999861717224 4,0 C4,0.5519999861717224 4.447999954223633,1 5,1 C5.552000045776367,1 6,0.5519999861717224 6,0 C6,-0.5519999861717224 5.552000045776367,-1 5,-1z M10,-1 C9.447999954223633,-1 9,-0.5519999861717224 9,0 C9,0.5519999861717224 9.447999954223633,1 10,1 C10.552000045776367,1 11,0.5519999861717224 11,0 C11,-0.5519999861717224 10.552000045776367,-1 10,-1z M0,-1 C-0.5519999861717224,-1 -1,-0.5519999861717224 -1,0 C-1,0.5519999861717224 -0.5519999861717224,1 0,1 C0.5519999861717224,1 1,0.5519999861717224 1,0 C1,-0.5519999861717224 0.5519999861717224,-1 0,-1z"/></g></g></g><g id="l_d_1385" mask="url(#__lottie_element_568_1)" style="display: block;"><g id="l_d_1384" transform="matrix(1,0,0,1,40,30)" opacity="1"><g id="l_d_1388" opacity="1" transform="matrix(1,0,0,1,0,0)"><path id="l_d_1389" stroke-linecap="round" stroke-linejoin="miter" fill-opacity="0" stroke-miterlimit="4" stroke-dasharray=" 0.1 4" stroke-dashoffset="6" stroke="rgb(34,34,34)" stroke-opacity="1" stroke-width="2" d=" M-1.00600004196167,-29.00200080871582 C-1.00600004196167,-29.00200080871582 -1.0119999647140503,30.87299919128418 -1.0119999647140503,30.87299919128418"/></g></g></g></g><g id="l_d_1364" style="display: none;"><g id="l_d_1368"><g id="l_d_1369"><path id="l_d_1370"/></g></g></g><g id="l_d_1357" style="display: none;"><g id="l_d_1361"><g id="l_d_1362"><path id="l_d_1363"/></g></g></g><g id="l_d_1350" style="display: none;"><g id="l_d_1354"><g id="l_d_1355"><path id="l_d_1356"/></g></g></g><g id="l_d_1343" style="display: none;"><g id="l_d_1347"><g id="l_d_1348"><path id="l_d_1349"/></g></g></g><g id="l_d_1336" style="display: none;"><g id="l_d_1340"><g id="l_d_1341"><path id="l_d_1342"/></g></g></g><g id="l_d_1329" style="display: none;"><g id="l_d_1333"><g id="l_d_1334"><path id="l_d_1335"/></g></g></g><g id="l_d_1322" style="display: none;"><g id="l_d_1326"><g id="l_d_1327"><path id="l_d_1328"/></g></g></g><g id="l_d_1315" style="display: none;"><g id="l_d_1319"><g id="l_d_1320"><path id="l_d_1321"/></g></g></g><g id="l_d_1308" style="display: none;"><g id="l_d_1312"><g id="l_d_1313"><path id="l_d_1314"/></g></g></g><g id="l_d_1301" style="display: none;"><g id="l_d_1305"><g id="l_d_1306"><path id="l_d_1307"/></g></g></g><g id="l_d_1294" style="display: none;"><g id="l_d_1298"><g id="l_d_1299"><path id="l_d_1300"/></g></g></g><g id="l_d_1287" style="display: none;"><g id="l_d_1291"><g id="l_d_1292"><path id="l_d_1293"/></g></g></g><g id="l_d_1280" style="display: none;"><g id="l_d_1284"><g id="l_d_1285"><path id="l_d_1286"/></g></g></g></g></svg>